<svg xmlns="http://www.w3.org/2000/svg" viewBox="0 0 260 170" width="260" height="170" role="img" aria-label="Quadratus">
  <title>Quadratus</title>
  <g transform="translate(88 8)">
    <rect width="96" height="96" rx="20" fill="#EFE6D5"/>
    <rect x="1" y="1" width="94" height="94" rx="19" fill="none" stroke="#3A342C" stroke-opacity="0.35" stroke-width="1"/>
    <g fill="none" stroke-linecap="round">
      <path d="M31 26 H65" stroke="#3A342C" stroke-width="12"/>
      <path d="M31 26 H65" stroke="#B35A3C" stroke-width="9"/>
      <path d="M39 37 H57" stroke="#3A342C" stroke-width="12"/>
      <path d="M39 37 H57" stroke="#43697A" stroke-width="9"/>
      <path d="M39 59 H57" stroke="#3A342C" stroke-width="12"/>
      <path d="M39 59 H57" stroke="#E4D8C2" stroke-width="9"/>
      <path d="M31 70 H65" stroke="#3A342C" stroke-width="12"/>
      <path d="M31 70 H65" stroke="#6B7B7E" stroke-width="9"/>
    </g>
    <path d="M70 12 C 70 34 26 62 26 84" fill="none" stroke="#3A342C" stroke-width="13" stroke-linecap="round"/>
    <path d="M70 12 C 70 34 26 62 26 84" fill="none" stroke="#EFE6D5" stroke-width="9" stroke-linecap="round"/>
    <path d="M26 12 C 26 34 70 62 70 84" fill="none" stroke="#3A342C" stroke-width="13" stroke-linecap="round"/>
    <path d="M26 12 C 26 34 70 62 70 84" fill="none" stroke="#EFE6D5" stroke-width="9" stroke-linecap="round"/>
  </g>
  <text x="130" y="142" text-anchor="middle" font-family="'Libre Baskerville',Baskerville,Georgia,'Times New Roman',serif" font-weight="700" font-size="20" letter-spacing="3.4" fill="#3A342C">QUADRATUS</text>
</svg>
