<svg xmlns="http://www.w3.org/2000/svg" viewBox="0 0 96 96" width="96" height="96" role="img" aria-label="Quadratus mark">
  <title>Quadratus</title>
  <rect width="96" height="96" rx="20" fill="#F1E4CF"/>
  <rect x="1" y="1" width="94" height="94" rx="19" fill="none" stroke="#191711" stroke-opacity="0.35" stroke-width="1"/>
  <g fill="none" stroke-linecap="round">
    <path d="M31 26 H65" stroke="#191711" stroke-width="12"/>
    <path d="M31 26 H65" stroke="#BA7142" stroke-width="9"/>
    <path d="M39 37 H57" stroke="#191711" stroke-width="12"/>
    <path d="M39 37 H57" stroke="#486E71" stroke-width="9"/>
    <path d="M39 59 H57" stroke="#191711" stroke-width="12"/>
    <path d="M39 59 H57" stroke="#F0E2CD" stroke-width="9"/>
    <path d="M31 70 H65" stroke="#191711" stroke-width="12"/>
    <path d="M31 70 H65" stroke="#668682" stroke-width="9"/>
  </g>
  <path d="M70 12 C 70 34 26 62 26 84" fill="none" stroke="#191711" stroke-width="13" stroke-linecap="round"/>
  <path d="M70 12 C 70 34 26 62 26 84" fill="none" stroke="#F1E4CF" stroke-width="9" stroke-linecap="round"/>
  <path d="M26 12 C 26 34 70 62 70 84" fill="none" stroke="#191711" stroke-width="13" stroke-linecap="round"/>
  <path d="M26 12 C 26 34 70 62 70 84" fill="none" stroke="#F1E4CF" stroke-width="9" stroke-linecap="round"/>
</svg>
